<mxfile host="app.diagrams.net" agent="Mozilla/5.0 (Macintosh; Intel Mac OS X 10_15_7) AppleWebKit/537.36 (KHTML, like Gecko) Chrome/133.0.0.0 Safari/537.36" version="26.0.16">
  <diagram name="Page-1" id="u_i2aiDVUkJ_7tAtBVR-">
    <mxGraphModel dx="1406" dy="844" grid="1" gridSize="10" guides="1" tooltips="1" connect="1" arrows="1" fold="1" page="1" pageScale="1" pageWidth="850" pageHeight="1100" math="0" shadow="0">
      <root>
        <mxCell id="0" />
        <mxCell id="1" parent="0" />
        <mxCell id="qVai3BSszVHWooCKAlPC-2" value="" style="rounded=1;whiteSpace=wrap;html=1;" vertex="1" parent="1">
          <mxGeometry x="240" y="110" width="570" height="490" as="geometry" />
        </mxCell>
        <mxCell id="qVai3BSszVHWooCKAlPC-1" value="" style="shape=image;imageAspect=0;aspect=fixed;verticalLabelPosition=bottom;verticalAlign=top;image=data:image/png,iVBORw0KGgoAAAANSUhEUgAAAR4AAAB4CAYAAAAkE50lAAAMS2lDQ1BJQ0MgUHJvZmlsZQAASImVVwdYE9kWvlNSIQQIREBK6E0QkRJASggtgPQiiEpIAoQSY0JQsaOLCq5dRLCiqyCKHRCxYVcWxe5aFgsqK+tiwa68GwLosq9873zfnfnnv2f+e86ZO3PnAkBv50ulOagmALmSPFlMsD9rXFIyi9QJUKANEGAOzPkCuZQTFRUOoA2c/27vbkJPaNcclFr/7P+vpiUUyQUAIFEQpwnlglyIDwKANwmksjwAiFLIm0/Nkyrxaoh1ZDBAiKuUOEOFm5Q4TYWv9PnExXAhfgIAWZ3Pl2UAoNENeVa+IAPq0GG2wEkiFEsg9oPYJzd3shDiuRDbQB84Jl2pz077QSfjb5ppg5p8fsYgVuXSZ+QAsVyaw5/+f5bjf1tujmJgDGvY1DNlITHKnGHdnmRPDlNidYg/SNIiIiHWBgDFxcI+fyVmZipC4lX+qI1AzoU1A0yIx8hzYnn9fIyQHxAGsSHE6ZKciPB+n8J0cZDSB9YPLRPn8eIg1oO4SiQPjO33OSGbHDMw7s10GZfTzz/ny/piUOp/U2THc1T6mHamiNevjzkWZMYlQkyFOCBfnBABsQbEEfLs2LB+n5SCTG7EgI9MEaPMxQJimUgS7K/Sx0rTZUEx/f47c+UDuWMnMsW8iH58NS8zLkRVK+yJgN8XP8wF6xZJOPEDOiL5uPCBXISigEBV7jhZJImPVfG4njTPP0Z1L24nzYnq98f9RTnBSt4M4jh5fuzAvfl5cHKq9PEiaV5UnCpOvDyLHxqligffC8IBFwQAFlDAlgYmgywgbu2q74JXqp4gwAcykAFEwKGfGbgjsa9HAo+xoAD8CZEIyAfv8+/rFYF8yH8dwio58SCnOjqA9P4+pUo2eApxLggDOfBa0ackGYwgATyBjPgfEfFhE8AccmBT9v97foD9znAgE97PKAZGZNEHPImBxABiCDGIaIsb4D64Fx4Oj36wOeNs3GMgj+/+hKeENsIjwg1CO+HOJHGhbEiUY0E71A/qr0/aj/XBraCmK+6Pe0N1qIwzcQPggLvAcTi4LxzZFbLc/riVVWEN0f5bBj88oX4/ihMFpQyj+FFsht6pYafhOqiirPWP9VHFmjZYb+5gz9DxuT9UXwjPYUM9sUXYAewcdhK7gDVh9YCFHccasBbsqBIPzrgnfTNuYLSYvniyoc7QOfP9ySorKXeqcep0+qLqyxNNy1O+jNzJ0ukycUZmHosDVwwRiycROI5gOTs5uwKgXH9Un7c30X3rCsJs+c7N/x0A7+O9vb1HvnOhxwHY5w4/CYe/czZsuLSoAXD+sEAhy1dxuPJAgF8OOnz79IExXN1sYD7OwA14AT8QCEJBJIgDSWAijD4TznMZmApmgnmgCJSA5WANKAebwFZQBXaD/aAeNIGT4Cy4BK6AG+AunD0d4AXoBu/AZwRBSAgNYSD6iAliidgjzggb8UECkXAkBklCUpEMRIIokJnIfKQEWYmUI1uQamQfchg5iVxA2pA7yEOkE3mNfEIxVB3VQY1QK3QkykY5aBgah05AM9ApaAG6AF2KlqGV6C60Dj2JXkJvoO3oC7QHA5gaxsRMMQeMjXGxSCwZS8dk2GysGCvFKrFarBE+52tYO9aFfcSJOANn4Q5wBofg8bgAn4LPxpfg5XgVXoefxq/hD/Fu/BuBRjAk2BM8CTzCOEIGYSqhiFBK2E44RDgD36UOwjsikcgkWhPd4buYRMwiziAuIW4g7iGeILYRHxN7SCSSPsme5E2KJPFJeaQi0jrSLtJx0lVSB+kDWY1sQnYmB5GTyRJyIbmUvJN8jHyV/Iz8maJJsaR4UiIpQsp0yjLKNkoj5TKlg/KZqkW1pnpT46hZ1HnUMmot9Qz1HvWNmpqamZqHWrSaWG2uWpnaXrXzag/VPqprq9upc9VT1BXqS9V3qJ9Qv6P+hkajWdH8aMm0PNpSWjXtFO0B7YMGQ8NRg6ch1JijUaFRp3FV4yWdQrekc+gT6QX0UvoB+mV6lyZF00qTq8nXnK1ZoXlY85ZmjxZDa5RWpFau1hKtnVoXtJ5rk7SttAO1hdoLtLdqn9J+zMAY5gwuQ8CYz9jGOMPo0CHqWOvwdLJ0SnR267TqdOtq67roJuhO063QParbzsSYVkweM4e5jLmfeZP5aZjRMM4w0bDFw2qHXR32Xm+4np+eSK9Yb4/eDb1P+iz9QP1s/RX69fr3DXADO4Nog6kGGw3OGHQN1xnuNVwwvHj4/uG/GaKGdoYxhjMMtxq2GPYYGRsFG0mN1hmdMuoyZhr7GWcZrzY+ZtxpwjDxMRGbrDY5bvIHS5fFYeWwylinWd2mhqYhpgrTLaatpp/NrM3izQrN9pjdN6eas83TzVebN5t3W5hYjLWYaVFj8ZslxZJtmWm51vKc5Xsra6tEq4VW9VbPrfWsedYF1jXW92xoNr42U2wqba7bEm3Zttm2G2yv2KF2rnaZdhV2l+1Rezd7sf0G+7YRhBEeIyQjKkfcclB34DjkO9Q4PHRkOoY7FjrWO74caTEyeeSKkedGfnNydcpx2uZ0d5T2qNBRhaMaR712tnMWOFc4Xx9NGx00es7ohtGvXOxdRC4bXW67MlzHui50bXb96ubuJnOrdet0t3BPdV/vfoutw45iL2Gf9yB4+HvM8Wjy+Ojp5pnnud/zLy8Hr2yvnV7Px1iPEY3ZNuaxt5k333uLd7sPyyfVZ7NPu6+pL9+30veRn7mf0G+73zOOLSeLs4vz0t/JX+Z/yP8915M7i3siAAsIDigOaA3UDowPLA98EGQWlBFUE9Qd7Bo8I/hECCEkLGRFyC2eEU/Aq+Z1h7qHzgo9HaYeFhtWHvYo3C5cFt44Fh0bOnbV2HsRlhGSiPpIEMmLXBV5P8o6akrUkWhidFR0RfTTmFExM2POxTJiJ8XujH0X5x+3LO5uvE28Ir45gZ6QklCd8D4xIHFlYvu4keNmjbuUZJAkTmpIJiUnJG9P7hkfOH7N+I4U15SilJsTrCdMm3BhosHEnIlHJ9En8ScdSCWkJqbuTP3Cj+RX8nvSeGnr07oFXMFawQuhn3C1sFPkLVopepbunb4y/XmGd8aqjM5M38zSzC4xV1wufpUVkrUp6312ZPaO7N6cxJw9ueTc1NzDEm1JtuT0ZOPJ0ya3Se2lRdL2KZ5T1kzploXJtssR+QR5Q54O/NFvUdgoflI8zPfJr8j/MDVh6oFpWtMk01qm201fPP1ZQVDBLzPwGYIZzTNNZ86b+XAWZ9aW2cjstNnNc8znLJjTMTd4btU86rzseb8WOhWuLHw7P3F+4wKjBXMXPP4p+KeaIo0iWdGthV4LNy3CF4kXtS4evXjd4m/FwuKLJU4lpSVflgiWXPx51M9lP/cuTV/ausxt2cblxOWS5TdX+K6oWqm1smDl41VjV9WtZq0uXv12zaQ1F0pdSjetpa5VrG0vCy9rWGexbvm6L+WZ5Tcq/Cv2rDdcv3j9+w3CDVc3+m2s3WS0qWTTp83izbe3BG+pq7SqLN1K3Jq/9em2hG3nfmH/Ur3dYHvJ9q87JDvaq2KqTle7V1fvNNy5rAatUdR07krZdWV3wO6GWofaLXuYe0r2gr2KvX/sS913c3/Y/uYD7AO1By0Prj/EOFRch9RNr+uuz6xvb0hqaDsceri50avx0BHHIzuaTJsqjuoeXXaMemzBsd7jBcd7TkhPdJ3MOPm4eVLz3VPjTl0/HX269UzYmfNng86eOsc5d/y89/mmC54XDl9kX6y/5HaprsW15dCvrr8eanVrrbvsfrnhiseVxrYxbceu+l49eS3g2tnrvOuXbkTcaLsZf/P2rZRb7beFt5/fybnz6rf83z7fnXuPcK/4vub90geGDyp/t/19T7tb+9GHAQ9bHsU+uvtY8PjFE/mTLx0LntKelj4zeVb93Pl5U2dQ55U/xv/R8UL64nNX0Z9af65/afPy4F9+f7V0j+vueCV71ft6yRv9Nzveurxt7onqefAu993n98Uf9D9UfWR/PPcp8dOzz1O/kL6UfbX92vgt7Nu93tzeXilfxu/7FcCAcmuTDsDrHQDQkgBgwH0jdbxqf9hniGpP24fAf8KqPWSfuQFQC//po7vg380tAPZuA8AK6tNTAIiiARDnAdDRowfbwF6ub9+pNCLcG2yO/pqWmwb+jan2pD/EPfQMlKouYOj5X0SZgxBaJfeFAAAAimVYSWZNTQAqAAAACAAEARoABQAAAAEAAAA+ARsABQAAAAEAAABGASgAAwAAAAEAAgAAh2kABAAAAAEAAABOAAAAAAAAAJAAAAABAAAAkAAAAAEAA5KGAAcAAAASAAAAeKACAAQAAAABAAABHqADAAQAAAABAAAAeAAAAABBU0NJSQAAAFNjcmVlbnNob3QHkkPYAAAACXBIWXMAABYlAAAWJQFJUiTwAAAB1mlUWHRYTUw6Y29tLmFkb2JlLnhtcAAAAAAAPHg6eG1wbWV0YSB4bWxuczp4PSJhZG9iZTpuczptZXRhLyIgeDp4bXB0az0iWE1QIENvcmUgNi4wLjAiPgogICA8cmRmOlJERiB4bWxuczpyZGY9Imh0dHA6Ly93d3cudzMub3JnLzE5OTkvMDIvMjItcmRmLXN5bnRheC1ucyMiPgogICAgICA8cmRmOkRlc2NyaXB0aW9uIHJkZjphYm91dD0iIgogICAgICAgICAgICB4bWxuczpleGlmPSJodHRwOi8vbnMuYWRvYmUuY29tL2V4aWYvMS4wLyI+CiAgICAgICAgIDxleGlmOlBpeGVsWURpbWVuc2lvbj4xMjA8L2V4aWY6UGl4ZWxZRGltZW5zaW9uPgogICAgICAgICA8ZXhpZjpQaXhlbFhEaW1lbnNpb24+Mjg2PC9leGlmOlBpeGVsWERpbWVuc2lvbj4KICAgICAgICAgPGV4aWY6VXNlckNvbW1lbnQ+U2NyZWVuc2hvdDwvZXhpZjpVc2VyQ29tbWVudD4KICAgICAgPC9yZGY6RGVzY3JpcHRpb24+CiAgIDwvcmRmOlJERj4KPC94OnhtcG1ldGE+CiJUaA8AAAAcaURPVAAAAAIAAAAAAAAAPAAAACgAAAA8AAAAPAAADMl1PieaAAAMlUlEQVR4Aexda4xdVRXedx53WqBTTRO0L0WDfUxrNLadmUaMpUlNDFJTEoOgKQWNj46VtqCYGNOSJvBDh7bG4j9bfBXDDwk1yiOKFGNfOn+k9AFCMRj/8KN0mL7mcV1r7b322ffM3HNf55x2pt9u5u73Wvt8Z6+Ptfc+51AoUTAIQAAIAIEcESiAeHJEG6qAABAQBEA8mAhAAAjkjgCIJ3fIoRAIAAEQD+YAEAACuSMA4skdcigEAkAAxIM5AASAQO4IgHhyhxwKgQAQAPFgDgABIJA7AiCe3CGHQiAABEA8mANAAAjkjgCIJ3fIoRAIAAEQD+YAEAACuSMA4skdcigEAkAAxIM5AASAQO4IgHhyhxwKgQAQAPFgDgABIJA7AiCe3CGHQiAABEA8mANAAAjkjgCIJ3fIoRAIAAEQD+YAEAACuSMA4skdcigEAkAAxIM5AASAQO4IgHhyhxwKgQAQAPFgDgABIJA7AiCe3CGHQiAABEA8mANAAAjkjgCIJ3fIoRAIAAEQD+YAEAACuSMA4skdcigEAkAAxIM5AASAQO4IXBXE8+rAiHnj9Jj579ujBECB/koREJQNcraaa7kZB67nBpqXQleuaY6dnIKLfVXQT/QEeWkjeaqhjiX6V6B/HHN+3pwWafL+WQWz6tNFLxIJIAAEkhG4YsQz8LcR8+c/XTbnhsSMI+IQYlAmiQyeDd1SkIulHRVx1oUSpV1tVK7ttJHkiUAckYRylVBEDwtygUfj9YTygjZcv/SjbdLj3q9Odz0RAQEgMBECuRPPwMuj5sVnL5t3h8bYb4gMmpJCN2rYgVGXtXP1zENSLldFqQmIxBREIrXjemkocdQv0F8mz5ZLby3X/lRVTlDqCbnxULsbOgtm2eJ2s/ZzHU4pIiAABEIEciWegZdHzO+fumT1O4O2BGIJQkw3TiDajnoJYSgBuHJ/MfFyzZf1IwmsUCRFSyar15VOILdMr/bWdqEen7Z6ln6kzdwH78ffIiSAgCKQG/Hsf/ySOXFyxBo+b8rEDdcbbQLB+DbWsMs8DxLI+WgJ5S6R9TBzaF/Oc9bFCsS48XCF61OmR4lRKqNxVJI3f3ar2fL167waJIAAECDTKlHIGojf7rloTp7kjWMKVQx/5gzesLUG7ShCCIX7DZ61Q5VfRwpKDiya93g4zHgfJYJ6IQ4psHI5f3HUltoe9FvW3pea6e1aYUfj21GTs+fHpGF8PJwPiYj3fu77CvZ9IlSRutYRyJx4ntzjPB2y2BLtuYSnQkowixa2moUfbzPLbmmtej8OPjNs+I8tO04oKu/DC1rM+gcq768c+cewOUx/EiJeYboTwpg7u8X0Li+aeRRXC2++Pmr+emjYHH+DvTmR4IlS5XPpqp6iWbum8piq6UE9EJhKCGROPNu+MyQG7UEjQ1cD75xRMLd+vkiEY0+DfJsaEi8R+fCf90BCAiEC+OwXimbV7e3jJAnpHHOkw7UyHksYPLLeFUXTu2x8v3GCJij4xa8uCAExIUZLPlZQMh3TCmbj+uvM/A9WJ9cJRKMICEwpBDIlnv3k7Zw8wUssMmxee7iYDXPxojZz18bmPAAmnoN/GGapEQFZLaJu/dYOc9OCckP/6c/PS3sZDf9ooHTP8vaGSUfF7P31BfMKez8aSK6Oj0kH+z0KDOJrGYFMiaf/BxfMuUG7D2I9C4KaDLGT9nEefCSdPY+XDpDnQ39evt5N0nMTLbnu2TpNS8wR8nT4T4nAV1Cid0W7EE9Y1mh6x0+GzFl6XIDHxEGWhES8HcSzj35/hi3ELxC4hhHIlHi2950vJwRniGvv7KhpP6fW+/LL/kvmzGtu85o6hcRyz5ZpQkBHj42Yw8cuUy0PgloEHljP8rbUSIfHzMu5p/54yROOGxFXmfXrpptPLK1/aSmd8QMEpggCmRHPoeeHzbNPk6E7smG89Mnih392ferwPfxNJjmmnPLnc3iptYHIR7ydo/G9HWlu7v92+sfdodcTboKvXFY0X7ot8sJSBwICgcAkQCBT4nnu6WgJxA4G08Kirtam93YmwvUMvev1xGMXI6Jz+rjths0d5sAL7O1YTyckgp7uInk76XsgO/ppufXeWLDJbEfddXOb+dpd6SwzrUT8AoHJh0BmxPN38nieZ4/HeyAWnIVL2szdTW4qV4J5+7eGAkN3SyrSP3OeMW2dlviUAEUGNfnuxvS9HZYtm8z/Hr/JvISJ524QT6V7iPJyBA4fOlZeEOR6V64IcpMrmRnx8FJLPR6BxHkgM+k9pq0pbSzHoX5i50Xa6xn/Dtjl60tm9ofomRzmIgnW8+nmDeUV6Xs7rGLvb+honZ7xYZ2hhyUeT0rEw5Py0OGj9pIy/l3Z220m80TPGJ7MxH/5zg2mEvncv2Wj2bKlLzPdWQrOjHjeos3evbL00Qf96DLICIv0PMsP+7PxMs6cHjX7dl2UJZ2ARvpG6ZGc0faSmfUBOlUi3Rx4ycdj6elm4mnsmR0WkRS+96NBM8Yn+ValNGW9Kz9JezxfbO4xAtW7c+ces3vn45rNNJ7MkzxTYDIWDuKpE+C3yPPYRx4IBzV0yZAh3s6nWp8pf75G6lL4YeJhr4cD6x0rloR4mPBm3cgswH9UQ2uuTX3ZLXke3P6e12P12fHctrrDrL4lnW/3gHgI4ikeQDwN3ODHHuLneMjIYy+Fdna2mAcezcbo+Vh9L5GPhpFpJTNGqyz2doR4nAfCm8rd3dkss3b8eEg++6FjCIm3f1t6z/GAeBThqRuDeBq4t/ztnQP7+XkW52c4o2dRc2jP5RsPpX+sLMSz2316g/SMTOcdFuvhMPEwAfF47ljXYebOrf4uFo+1nrCPnlw+/hq/t2WXmP7VCfK0um5uTfVlURBPPXdmcrYF8TR438TrORc9vcxi1ANYuKSVTrjSJ59tfUPCdKPk0Iy1iTbJM/HwkovDpk3p7jPxc0IvvEgfOKMjdL0+UUTq3AhM//b0vB2WDeIRhKf0D4inwds7cHDUPENejz/GDrwefaBwARHQIno7/VM1vJ1eyzD27qZ9ntfHzGgr+Tq0d6ynSh3EcbNubBFPZ90d6WzwHjk6Yl49NWxO0BIvIhxOlXs8Sz7WZu5N+dMYIJ5aZsPkbgPiaeL+8cuip16JXhZlIvBEpHKdZzBzZoslCm4gpuxOxULCohrfX8tdfxU3eI72dvgzHGE5pXWpNa1ol1z21ImIopI+le9GY9tbLezdKMH48rC9S3cR6WT1JcJKR62KA8e7du2peCTLR+SbN9d2JIvj9BDVfNIgniZx5u/ynDpu36eKPAMSSsYpeZbvjdYSge7NhATk90x8W9df805eGeE42WV6A31leqijekgiWQnJyeVuEuJ6VD9Vhnq6FrCnk/5y0o2ipihp8jKZPPm7fTXJQaP8EUi6d5P5EYfMnuOZ6BZZz2fE+jFqyKHBBmlPQtpOBUreEpMnBjk1U8+IhXC9JQCXi0jNlYs4rqTAROGJSsqkhMpjemxLVy5dvR4/XlfM+cVEOll5Oqqmljhp8oJ4akHwyrVJuncgnjrvixCQ8368wYaE4AyeDd97OKwjIApNc2xpwsbxcp/XMUr7gFCowcQEQ/KcPumqelys4lS/10P1nTcUzJpb6R2wjB5O9LprTCRN3qyIR5eAV3J5xmPIQ79eK9+OtPUl3bu0iEfHn/bYk6Znrh5PfCD8AXje+7GG72pDw6a0D1oelnGllAdEwksl5wEJFVVZKnnCcLI4YiLz5aqXyziIfqvPE5bTx19UXLP66iEcO2BjkiYvT7Zml1o8cXkfiYNOYtUdxo0aCsus9GpI+CpH0jj4Ont6V6TyioHqqXStfJ0c9HWGWscfYqXppHvXDJ7V9v3SwkqvIx5fUeLRwfyT/ud+p/9lT4X+9zabvZi+9zgG37V5aa9EIARAJZyfgGjEW3FtpLdL8+ZykR8cDvqLXPqJezhSzvK1Acfaz5XNoWeB+GuKWb3zFapuNJ00eZshnmoGWGm89RpM0ukdkyZfQ9I1huPgtryZznEjoVY9LFuvM6mPjr/SWJL6qvxKfePljdyvenXEdVbKXxXEU2lwjZTzx9ffpKPtvzxHXxpsYcpgpqDYEcjc+a2mb3M2T003Mt48+iRN3kaJhycxy2001KM3iXiUQHg89YRqBh+X1ej1VhtftXEk3bt6SCEJw/i1xvP13Kt430r5KUc8eqG7Hrlg3nnHfn409Fjmzm8xG0E8CpP8l58nfz2hUSOM66h1QjdjNHGdmq9VN7dP63pVdxjnQTxp4XfmP8fDoTeV/j8AAAD//5P4FggAAA/8SURBVO1de6xcRRmfvbelFAoNVDBSQdsKlVgsUkpLYgkUC8FINNEgosbSSCGiofVVND6jfVhjWqJVWgo2tknLP/qHGqMGozwsj/YqhhYKtrwC/EFRpM97b++9fr+Z+XbPbs/55uzuObv3nH5DunPOzHzPme93v5lzdqmMUDElLGtWHDZvvE6mVYwZof9MhS6oPufcXnP7kvEltDjZpBs/udA8uv2J2AFzL59ttt2/KbYvqXHNmnXmrjU/T+puqh2yoYNUspQXlZNGNsZL/ovya+U6pIMk+46lXzBLl94uis3Sd62slSTlKmUFni0b+80zu4/V7AbuUDltYo9Z9h0FHucNY4O+GeCRFjIW5py5s83lcy+z7Lc/+ritJZBKs5glmWxHK3U3ZbO+eQPPu897H4tKrHneHnv0icQ/UEwc0pfHheryAs89Rz3wVHzG41wx6awe8+VvnBLyS6n6pb+aaYIv6owkEJD4INuCDkkltJiTZDbygw5LlrgMAKAnAR7TvvDSLr6MrUOBG5WJaxToi5JGfsh2ae5CGU/Ib0myJTppnq3RKT/KCzzIeHZRxuMzHfbHpLN7zNI7NeNhfzS7kJIWZSgIpABKCgDWMUkm96NO4iHJlejQFwLMkO/a0RvyUST9Qz6XQDPJX06qLDdEyzykurTA84ufHDGvvDxUPdvBGQ/Oet5mgUczHl4UoeDhcVwjmOJK6KxBCuJQAIUCWKKX5MIOKYhCckPZEvhLwBGSH6KX7JZ0l+ggE0Xym+QzRx3+LB3wvPrysLV6C221Dhxw5+b202c+k95OGc8yzXh4aTQLPEzXWGOhovC5Ds4LuHAf3zfWoUCQgiiN/q3+5W9XLuyUAhj9oSCWgEvyW0h3nMVJRTrvSeNziTf6RgXw7Hz4mNnzryHzmgcNqzQBhYMNZ8JAv3025W7Q4zOYiq/5qRX2Vu4pljH9RIN7yykyfsLEyP6LL1ke33tJ1adiuKhE+FH/OZN7rB6nnV4xH//YOKYYdbW0eNtZRAiqtWvXBQ8kQw6RAgi0UhCFaEEv2S/Rt0oHmVxGI/Cwbq3W7awZltk14OkjsPnr7wbNwTc9oHDAMwBUNfQXde0xwBMBBgYeS+npwB6wYXHI13X3aEOx4x1/R8FA5jkQgDEkjuCSC11Pv3CMmfzOHnPNVSdx66iopQBqdRFJPJs1Wgp+8OoW8LSaKTXa3w4fyc+S3yS6Rv2avW91zUTldBx4+h6KARy8ShTJSBxwcIBz4Hu1qRmAYXvxwcW3V4Glrj0CJJDj5VlOVbkMJ56Q5TBfNHt5kM/XqO092lDoftJZFXPxxWNHDQBJi7CVRSQBgXNCc59SAIGTJC9EC3rJfom+VTrI5NKtjEfSnXVrtW5lzTTK6ijwAHR+v3nQb4UQxRFAcHd1AW2VjQnsusC3dCOEWwxQNb4AsAr9F5cBWd74YP4gQ+GaLuvk+HHorgNGlgtCvxWzcukWGdDNnzkZXLtapEXY7CKSQCDJSMhAQRDGFSn4MV6SGaIFvWS/RC/RpfWbpDt068YZD+Q2U3j+mAbnQ6GHCTw2qe4Y8Gz7Wb959kl6ymSLA5y6AG4I3CoA+ICvGoDIR4lpB1AQDtQDBrXVyeEMhxiMRM9sYuggpiqH5Vp+rh3dTs+IPbahdo+naF9fcqod2q2PLAKIdZe2DRiDRcrv0kQXrPSXXwp+8JSCN0QLesl+iV6SC74h0MCYdnnkoXsavaF7nqUjwAPQee5JPG2qBaQ1KhLMHOCnnYEMhUq0z98ntzu+DnIqZuAI7o05SofL1UyIedB5MA6Dq4UuwbcKWNwRaMewA2/BpviMChL4DOi9Xc58pMWb9i837EWRgKfVIJboIFMK3hAt6CX7JXoJLMEXRQpiSW9HLdNjTB66p53zpAwVekX/qOC+2ZI78FjQ+Qfep/Gq+YCu3lPz+TN7zAUzx5hZHxzTrP6x43c8cszseGTQ7N8/4p9s0TCSO9w7YoZJxJRpvWbx4mweqT/2+DHz9DOD9Ja0z+Zi7EPGddnlY80nru/OtktavGkXIRwdCkTpvRYpCKXgh9x2aEEv2R+SLQEteMN//DURDkb4Ke3TPgm42tVdsluaK8hFSbI95DNHLX/mDjxrv0bv0/wXmYfLLJw6LkOZcIYxV1w/NjPAYVPXrz5qL/E4HeDDW63hMQ54cL9q1QQenlm9aTO+pgEAcvZBDmdcI5Rp3fr58Wbau3ozk5eWkbQAswSepCAKAVZoIXcTeCTfpfW/NC7JZ0wjyQ/5TaIF/yT6EHAm0bHOaepcgWfbT/vNv/85hDCsZTx0ifvzP9BrPnV79u++vPrSsPnt1n5ItHJeecW9UIiMZ/BkAILtshnP1KnZg8Avf3XEgY+XA3kMQGeeXTHL7uj8eY+0AJsBHngu6a8g+vivPw4esXhR0vzlDy3kbgIPbJD8h/52Sp7AEwJ81pszNdzzvHFfXJ0mW4qji7blCjxrv3rUHKRshzMArk+lTGfp6my2OlFjcL0T2yx6R8gWCvr9+4er262B8TXgAegsviUfHVasOmTe+h/spmKBx9eU9az+QfaZlpUjfEiB0yzwSLwEFcSu0Q48aQNYNDKhM0/ggcisdQ/NVYKZxzXnCjw/XHS4FngsmgLxw587ycyal815DrPlGm9B73h4kOSSIMo1sNXCIfPwWGOGxjrgASRMyxF4HnvimPnNr4/ajMtmWBAIdajcdNPJZuaMfGx3Eo7/lMCiWeDJeiFD29Bi7nbGAx0lHdDfaskbeKBXVrqH5qkZH+QGPNv/NGj+ss19O5zPWGzGQxH4rY35ZBowfMMqd77DmcbAwIh5/fVhM0QvEzPwWAcRECymM5epU7LfboH/ilWHKeuhbZ4HHLThKdeFdIi+8IbOHjJnCTywQ+KH/riCRZv0MxGhBS0FTogWukj6pqFne5oFXYA6Xi2A/KTSCeCBbMmHSbpF25vxU5Qu6To34Pn7HwE8yDy8aKrxh/89ONv5YvZnO5CCbGcnvaTogK4mF8BzkLIdyHf6uBQE2y0c+OZRltN268CbAB7/uN0KHjFTpvea2xZ29tvxUuA1m/Gwr5pZyBxcSXqEFrUkK0QLfZPkoi8NPcZFC/RBSQJSBhzUKNK5WOi8JEvdAZxpztys0v6j0ZZoXzvXuQHPdgDP/e6sJZrxAHhuzAl4NqykbIeBjr1C96ecacxTzwOQqDT0/2h5Pmcu7gmXP2vyciF/ygUAnnzADmLiCgdKXB9+LZADJK5famO+cQEYt2B5fCPPkA4IGP7We7O0GJ8kF30h2RgTKtCPS5wv2wGePHRnf8bNG+xgG5Ct8TXbl1WdK/A8QBlP/WN0YyZM6jFLfpz9VgOZDv45YHEZDd5MxlcmPnTDWLN+4xHnM5t5uX7kYAuuHmcWzM/+S52bNtPTrV3u/aWaNAKe6T0dz3iyWiwhPljQeS3UkOw8+qOA0si/GTvbAZ5GuXndd3rucgOeF58bMltWDNQyDBvwFOr0Ls2312e/1bhnRS3bQaBzZoOXEvFvAwHP3udrL/lhCI+7dRG9X5PxWc/3vnvIPU2rbrWcTpfOoRcJP5rPVhM2acnOA9I2h7ePIWnIWKTMAnxOxJIr8Gxe3l/LeCJbnOtuzvapFjIdfAHVAomdRbryT7VmzXMvKO7bN2TuvpeesllEQr+fbqpxwHzbomzB8M5lB50AK8fpgy3nlQtOMtfNV+Dx3h/VVRagIYFXK+dLo9phTSiXG/BAh7u+Qu/x/MfDQSTQTz2zktl2q++hIbPzwcghNhtP8t5xXo/5yKdr26j19x4x+yjrsRpF9MH9AvoNnax+R2fFysN0sAywAef673KtWpnPmRKbrXV2HsD2A8CRVELAIQEXeKbNmpLkF7k9V+BBFvKH+wgUfC4SDfiJ51bMl77f3iFr34OU6dC/KF9kMi7cjbnlm/VnSdhqAXzsCN4CMQBR64KrxrUNPpvozeU9T7mzHV4YrN/0Gb30Mxnt2cw8te6MB6TzGWgA8EHhQ2o+F0rz9Cj0RMsyLulHrsADn92Ft5ffoNDjAI8Aw7RLesyNLX5tou/BIQKd2ouCkGUBx/PHFuuSece/o2PB5z4CH9bD16BHsZnPlbUsybWGP/HS4AN/HjAH8cayVcRVzm7YXzErV3b+6xJhzXWE5IFQ1iLRSn2hbEmiLUNf7sBjs5573SEz4tEWCvZqoWsAUNpvp7/24rDp+9sxg9qWBuBAoM+6YgyBTvLbwXffd9jsfcEfNBMTqxfr5PldQ+Bz7ZXhsxgAztO7B82zlOVU7YNiDfymX6TZjp2vAn5I5zStmHOigw58ljvwQAi+LLq3rx4oEJf8ezU29P3WB4/b3b0HBDBAIYLBQ+6yESi4H+3gOwaJBV3wfeN43L91oF4fanLE9oJGeH0mnt5LfCwH21MFFLqz5zhUN/JnyfxDY9Nn9JiFn9UtlnNgMT+zBJ8TeYvFs98R4IEw/C7P3h04+6g/bA0BBCtaDXgPKNV7GhB9QZGfZgFF6ts9HDA9M+Z7qrkASEjNCKDYloZfLAQBtbM9TFxHRz9/SpmOgg47p7h16KA5jWV49yfPl/LS6DBaxnQMeGAwwGffzuFIQFMjByoGIJapADD4d2yOBxI3hsdaeocLroP5eV5+dE1OpB0ZF27rAYq/4lCTUwdEzJAI0R7Vg7u4/YKLNNNhn5SlbvXMR7dX9Sugo8DDorci+9lZ/zKfBRAegNoHdjXz8G2oOLBx7cZZaHA9IMAIBgaMQWnkh2G+HM/PDo/dCtaA0BOznAi/CfTzrVdfO87MuTT5nIlla11MDwCApP/pHazSDCd5brsCPKzO1nWcAQEoELmRmpCCz0iiQFIHRGAUE/gAkuo4CwiOr81sQBCVQwNdu+NFn+h1yBOtY9qrcuwFfR2E3k+aTy8IzpmtgAPXnUiFH6Ozzc18pYJpTqS6q8DDjt7dN2Se34Mt2EjtaRV3WmDxkW0hgYGjASAw3oIME1I/3fvRtUZqqAMW7uF23IMoUhq3Yo6D4zz5vF4zdVqPef8M+sEfLeoB9UAqD4wK4EmlqQ5SD6gHSuMBBZ7STKUaoh4ojgcUeIozV6qpeqA0HlDgKc1UqiHqgeJ4QIGnOHOlmqoHSuMBBZ7STKUaoh4ojgcUeIozV6qpeqA0HlDgKc1UqiHqgeJ4QIGnOHOlmqoHSuMBBZ7STKUaoh4ojgcUeIozV6qpeqA0HlDgKc1UqiHqgeJ4QIGnOHOlmqoHSuMBBZ7STKUaoh4ojgcUeIozV6qpeqA0HlDgKc1UqiHqgeJ4QIGnOHOlmqoHSuMBBZ7STKUaoh4ojgcUeIozV6qpeqA0HlDgKc1UqiHqgeJ4QIGnOHOlmqoHSuMBBZ7STKUaoh4ojgcUeIozV6qpeqA0HlDgKc1UqiHqgeJ4QIGnOHOlmqoHSuMBBZ7STKUaoh4ojgcUeIozV6qpeqA0Hvg/yq0nayO9dvoAAAAASUVORK5CYII=;" vertex="1" parent="1">
          <mxGeometry x="277" y="130" width="253" height="106.15" as="geometry" />
        </mxCell>
        <mxCell id="qVai3BSszVHWooCKAlPC-16" style="edgeStyle=orthogonalEdgeStyle;rounded=0;orthogonalLoop=1;jettySize=auto;html=1;" edge="1" parent="1" source="qVai3BSszVHWooCKAlPC-3" target="qVai3BSszVHWooCKAlPC-8">
          <mxGeometry relative="1" as="geometry" />
        </mxCell>
        <mxCell id="qVai3BSszVHWooCKAlPC-3" value="User" style="shape=umlActor;verticalLabelPosition=bottom;verticalAlign=top;html=1;outlineConnect=0;" vertex="1" parent="1">
          <mxGeometry x="40" y="340" width="60" height="140" as="geometry" />
        </mxCell>
        <mxCell id="qVai3BSszVHWooCKAlPC-8" value="On-&lt;span style=&quot;background-color: transparent; color: light-dark(rgb(0, 0, 0), rgb(255, 255, 255));&quot;&gt;Chain&amp;nbsp;&lt;/span&gt;&lt;div&gt;&lt;span style=&quot;background-color: transparent; color: light-dark(rgb(0, 0, 0), rgb(255, 255, 255));&quot;&gt;Orderbook&lt;/span&gt;&lt;/div&gt;&lt;div&gt;&lt;span style=&quot;background-color: transparent; color: light-dark(rgb(0, 0, 0), rgb(255, 255, 255));&quot;&gt;&amp;nbsp;Smart Contract&lt;/span&gt;&lt;/div&gt;" style="shape=parallelogram;perimeter=parallelogramPerimeter;whiteSpace=wrap;html=1;fixedSize=1;" vertex="1" parent="1">
          <mxGeometry x="270" y="340" width="147" height="160" as="geometry" />
        </mxCell>
        <mxCell id="qVai3BSszVHWooCKAlPC-9" value="Aggregator&lt;br&gt;(processes BLS signatures)" style="ellipse;whiteSpace=wrap;html=1;" vertex="1" parent="1">
          <mxGeometry x="575" y="460" width="170" height="100" as="geometry" />
        </mxCell>
        <mxCell id="qVai3BSszVHWooCKAlPC-10" value="Operator&lt;br&gt;(runs task)" style="rounded=0;whiteSpace=wrap;html=1;" vertex="1" parent="1">
          <mxGeometry x="570" y="250" width="180" height="95" as="geometry" />
        </mxCell>
        <mxCell id="qVai3BSszVHWooCKAlPC-12" value="" style="endArrow=classic;html=1;rounded=0;exitX=1;exitY=0.5;exitDx=0;exitDy=0;entryX=0;entryY=0.5;entryDx=0;entryDy=0;" edge="1" parent="1" source="qVai3BSszVHWooCKAlPC-8" target="qVai3BSszVHWooCKAlPC-10">
          <mxGeometry width="50" height="50" relative="1" as="geometry">
            <mxPoint x="390" y="410" as="sourcePoint" />
            <mxPoint x="440" y="360" as="targetPoint" />
          </mxGeometry>
        </mxCell>
        <mxCell id="qVai3BSszVHWooCKAlPC-17" value="Create Limit Order" style="text;html=1;align=center;verticalAlign=middle;whiteSpace=wrap;rounded=0;" vertex="1" parent="1">
          <mxGeometry x="130" y="360" width="100" height="50" as="geometry" />
        </mxCell>
        <mxCell id="qVai3BSszVHWooCKAlPC-18" value="Generate Task&lt;br&gt;newTaskCreated()" style="text;html=1;align=center;verticalAlign=middle;whiteSpace=wrap;rounded=0;rotation=0;" vertex="1" parent="1">
          <mxGeometry x="425" y="290" width="100" height="50" as="geometry" />
        </mxCell>
        <mxCell id="qVai3BSszVHWooCKAlPC-19" value="" style="endArrow=classic;html=1;rounded=0;exitX=0.5;exitY=1;exitDx=0;exitDy=0;" edge="1" parent="1" source="qVai3BSszVHWooCKAlPC-10" target="qVai3BSszVHWooCKAlPC-9">
          <mxGeometry width="50" height="50" relative="1" as="geometry">
            <mxPoint x="390" y="410" as="sourcePoint" />
            <mxPoint x="440" y="360" as="targetPoint" />
          </mxGeometry>
        </mxCell>
        <mxCell id="qVai3BSszVHWooCKAlPC-20" value="Generate Signed Task Response" style="text;html=1;align=center;verticalAlign=middle;whiteSpace=wrap;rounded=0;" vertex="1" parent="1">
          <mxGeometry x="540" y="380" width="110" height="40" as="geometry" />
        </mxCell>
        <mxCell id="qVai3BSszVHWooCKAlPC-21" value="" style="endArrow=classic;html=1;rounded=0;exitX=0;exitY=0.5;exitDx=0;exitDy=0;entryX=1;entryY=0.5;entryDx=0;entryDy=0;" edge="1" parent="1" source="qVai3BSszVHWooCKAlPC-9" target="qVai3BSszVHWooCKAlPC-8">
          <mxGeometry width="50" height="50" relative="1" as="geometry">
            <mxPoint x="390" y="410" as="sourcePoint" />
            <mxPoint x="440" y="360" as="targetPoint" />
          </mxGeometry>
        </mxCell>
        <mxCell id="qVai3BSszVHWooCKAlPC-22" value="Sends Aggregator Response" style="text;html=1;align=center;verticalAlign=middle;whiteSpace=wrap;rounded=0;" vertex="1" parent="1">
          <mxGeometry x="420" y="480" width="110" height="35" as="geometry" />
        </mxCell>
      </root>
    </mxGraphModel>
  </diagram>
</mxfile>
